<?xml version="1.0" encoding="UTF-8"?>
<!DOCTYPE svg PUBLIC "-//W3C//DTD SVG 1.1//EN" "http://www.w3.org/Graphics/SVG/1.1/DTD/svg11.dtd">
<!-- Creator: CorelDRAW 2021 (64-Bit) -->
<svg xmlns="http://www.w3.org/2000/svg" xml:space="preserve" width="817px" height="300px" version="1.1" style="shape-rendering:geometricPrecision; text-rendering:geometricPrecision; image-rendering:optimizeQuality; fill-rule:evenodd; clip-rule:evenodd"
viewBox="0 0 817 300.02"
 xmlns:xlink="http://www.w3.org/1999/xlink"
 xmlns:xodm="http://www.corel.com/coreldraw/odm/2003">
 <defs>
  <style type="text/css">
   <![CDATA[
    .fil3 {fill:#1A1A1A}
    .fil2 {fill:#4D4D4D}
    .fil1 {fill:gray}
    .fil0 {fill:#B3B3B3}
    .fil4 {fill:black;fill-rule:nonzero}
   ]]>
  </style>
 </defs>
 <g id="Capa_x0020_1">
  <metadata id="CorelCorpID_0Corel-Layer"/>
  <g id="_2665183166976">
   <circle class="fil0" cx="149.48" cy="150.01" r="150.01"/>
   <path class="fil1" d="M-0.53 150.01c150.01,-150.01 300.02,0 300.02,0 0,0 -150.01,150.01 -300.02,0z"/>
   <circle class="fil2" cx="149.48" cy="150.01" r="59"/>
   <circle class="fil3" cx="149.48" cy="150.01" r="18"/>
  </g>
  <path class="fil4" d="M324.39 148.54c-7.35,0 -12.58,-2.19 -15.71,-6.57 -3.12,-4.37 -4.69,-10.71 -4.69,-19.01 0,-8.3 1.59,-14.65 4.77,-19.05 3.17,-4.4 8.41,-6.6 15.71,-6.6 5.75,0 10.17,1.4 13.27,4.2 1.7,1.6 2.56,3.38 2.56,5.36 0,1.97 -0.44,3.51 -1.32,4.61 -0.87,1.1 -1.86,1.65 -2.96,1.65 -1.1,0 -2.05,-0.27 -2.85,-0.82 -0.8,-0.55 -1.35,-1.25 -1.65,-2.1 0.95,-1.4 1.42,-2.79 1.42,-4.16 0,-1.38 -0.78,-2.51 -2.36,-3.38 -1.57,-0.88 -3.65,-1.31 -6.22,-1.31 -2.58,0 -4.75,0.56 -6.53,1.69 -1.77,1.12 -3.1,2.76 -3.97,4.91 -0.88,2.15 -1.48,4.39 -1.8,6.71 -0.33,2.33 -0.49,5.09 -0.49,8.29 0,3.2 0.16,5.96 0.49,8.29 0.32,2.32 0.91,4.56 1.76,6.71 1.75,4.4 5.27,6.6 10.57,6.6 3.55,0 6.63,-0.92 9.23,-2.78l0 -13.12c-1.85,-0.8 -4.4,-1.33 -7.65,-1.58l0.3 -2.77 14.03 -0.68 0 21.23c-4.46,2.45 -9.76,3.68 -15.91,3.68z"/>
  <path id="_1" class="fil4" d="M369.25 112.31c1.8,0 3.36,0.52 4.69,1.57 1.32,1.05 1.98,2.38 1.98,3.98 0,1.6 -0.36,2.87 -1.08,3.82 -0.73,0.95 -1.6,1.43 -2.63,1.43 -1.02,0 -1.91,-0.21 -2.66,-0.64 -0.75,-0.42 -1.23,-0.99 -1.43,-1.69 0.5,-0.5 0.75,-1.2 0.75,-2.1 0,-1.5 -0.7,-2.25 -2.1,-2.25 -1.4,0 -2.81,1.02 -4.24,3.04 -1.42,2.03 -2.13,4.19 -2.13,6.49l0 17.4c1.35,0.9 3.32,1.6 5.92,2.1l-0.3 2.55 -17.25 0 0.3 -2.7c2.05,-0.35 3.7,-1 4.95,-1.95l0 -21.38c0,-1.85 -0.39,-3.11 -1.16,-3.78 -0.78,-0.68 -2.14,-1.07 -4.09,-1.17l0.23 -2.17c0.65,-0.1 3.7,-0.95 9.15,-2.55l1.35 0.67 0.75 5.25c2.65,-3.95 5.65,-5.92 9,-5.92z"/>
  <path id="_2" class="fil4" d="M395.42 148.54c-8.05,0 -12.07,-4.03 -12.07,-12.08l0 -14.63c0,-1.85 -0.38,-3.11 -1.13,-3.78 -0.75,-0.68 -2.1,-1.07 -4.05,-1.17l0.15 -2.17c1.7,-0.3 5.03,-1.18 9.98,-2.63l1.5 0.75 0 24.45c0,5.25 2.15,7.88 6.45,7.88 1.3,0 2.67,-0.49 4.12,-1.46 1.46,-0.98 2.73,-2.46 3.83,-4.47l0 -17.4c0,-1.85 -0.39,-3.11 -1.16,-3.78 -0.78,-0.68 -2.14,-1.07 -4.09,-1.17l0.22 -2.17c1.7,-0.3 5.03,-1.18 9.98,-2.63l1.43 0.75 0 30.53c1.1,0.95 2.82,1.63 5.17,2.02l-0.22 2.63 -9.98 0 -0.75 -4.73c-2.6,3.51 -5.73,5.26 -9.38,5.26z"/>
  <path id="_3" class="fil4" d="M425.65 121.91c0,-1.85 -0.37,-3.11 -1.12,-3.79 -0.75,-0.67 -2.1,-1.06 -4.05,-1.16l0.22 -2.18c0.65,-0.1 3.7,-0.95 9.15,-2.55l1.35 0.75 0.68 4.58c2.05,-3.5 5.32,-5.25 9.82,-5.25 9.15,0 13.73,5.8 13.73,17.4 0,6.1 -1.45,10.76 -4.35,13.99 -2.9,3.22 -7.1,4.84 -12.6,4.84 -2.35,0 -4.48,-0.4 -6.38,-1.21l0 11.86c1.25,0.95 2.98,1.62 5.18,2.02l-0.23 2.55 -16.57 0 0.3 -2.7c1.95,-0.25 3.57,-0.87 4.87,-1.87l0 -37.28zm15.45 -6.38c-6,0 -9,4.7 -9,14.1l0 14.25c1.8,1 4.15,1.5 7.05,1.5 2.9,0 5.24,-1.37 7.02,-4.12 1.77,-2.75 2.66,-6.58 2.66,-11.48 0,-4.9 -0.63,-8.5 -1.88,-10.8 -1.25,-2.3 -3.2,-3.45 -5.85,-3.45z"/>
  <path id="_4" class="fil4" d="M472.34 119.17c-1.42,2.28 -2.14,6.01 -2.14,11.21 0,5.2 0.72,8.95 2.14,11.25 1.43,2.31 3.76,3.45 7.02,3.45 3.24,0 5.61,-1.14 7.08,-3.45 1.48,-2.3 2.22,-6.05 2.22,-11.25 0,-5.2 -0.73,-8.93 -2.18,-11.21 -1.45,-2.27 -3.81,-3.41 -7.09,-3.41 -3.27,0 -5.62,1.14 -7.05,3.41zm-4.87 24.71c-2.68,-3.09 -4.02,-7.6 -4.02,-13.5 0,-5.9 1.34,-10.38 4.02,-13.46 2.67,-3.07 6.64,-4.61 11.89,-4.61 5.25,0 9.21,1.54 11.88,4.61 2.68,3.08 4.02,7.56 4.02,13.46 0,5.9 -1.34,10.41 -4.02,13.5 -2.67,3.11 -6.63,4.66 -11.88,4.66 -5.25,0 -9.22,-1.55 -11.89,-4.66z"/>
  <path id="_5" class="fil4" d="M522.11 110.58l-1.8 0.08c-0.65,0 -1.15,-0.03 -1.5,-0.08l0 -12.9c6.6,0.2 14.16,0.3 22.69,0.3 8.52,0 13.79,-0.1 15.79,-0.3l0 12.9c-0.35,0.05 -0.89,0.08 -1.62,0.08 -0.72,0 -1.28,-0.03 -1.68,-0.08 -0.35,-3.6 -1.25,-6.47 -2.7,-8.62 -3.25,-0.35 -6.55,-0.55 -9.9,-0.6l0 41.85c1.74,0.95 4.2,1.63 7.35,2.02 -0.2,1.2 -0.33,2.13 -0.38,2.78l-20.85 0 0.45 -2.78c2.95,-0.35 5.22,-1.02 6.82,-2.02l0 -41.85c-3.85,0.05 -7.12,0.22 -9.82,0.52 -1.8,2.5 -2.75,5.4 -2.85,8.7z"/>
  <path id="_6" class="fil4" d="M565.61 129.78l0 0.38c0,6.1 0.78,10.1 2.33,12 1.45,1.8 3.75,2.7 6.9,2.7 1.65,0 3.27,-0.3 4.87,-0.9 1.6,-0.6 2.8,-1.2 3.6,-1.8l1.13 -0.83 1.87 2.25c-0.35,0.36 -0.85,0.81 -1.5,1.35 -0.65,0.56 -2,1.29 -4.05,2.22 -2.05,0.92 -4.12,1.39 -6.22,1.39 -5.7,0 -9.77,-1.54 -12.19,-4.62 -2.43,-3.07 -3.64,-7.52 -3.64,-13.35 0,-5.82 1.34,-10.32 4.01,-13.5 2.68,-3.17 6.53,-4.76 11.55,-4.76 5.03,0 8.54,1.3 10.54,3.9 2,2.6 3.08,6.45 3.23,11.55l-1.58 2.02 -20.85 0zm8.48 -14.47c-5.5,0 -8.33,3.9 -8.48,11.7l15.68 -0.53c0,-3.95 -0.51,-6.8 -1.54,-8.55 -1.03,-1.75 -2.91,-2.62 -5.66,-2.62z"/>
  <path id="_7" class="fil4" d="M603.86 148.54c-3.1,0 -5.5,-0.76 -7.2,-2.26 -1.7,-1.5 -2.55,-3.73 -2.55,-6.71 0,-2.97 1.2,-5.4 3.6,-7.27 2.4,-1.88 5.88,-2.97 10.43,-3.27l6.15 -0.45 0 -6.07c0,-2.5 -0.53,-4.33 -1.58,-5.48 -1.05,-1.15 -2.75,-1.72 -5.1,-1.72 -4.15,0 -6.22,1.12 -6.22,3.37 0,1.3 0.75,2.23 2.25,2.78 0,2.4 -1.43,3.6 -4.28,3.6 -1.3,0 -2.35,-0.4 -3.15,-1.2 -0.8,-0.8 -1.2,-1.85 -1.2,-3.15 0,-2.55 1.14,-4.59 3.42,-6.11 2.27,-1.53 5.4,-2.29 9.37,-2.29 3.98,0 7.12,0.9 9.41,2.7 2.3,1.8 3.46,4.3 3.46,7.5l0 20.92c1.15,0.85 2.89,1.53 5.25,2.03l-0.3 2.55 -10.36 0 -0.75 -3.38c-2.8,2.61 -6.35,3.91 -10.65,3.91zm-3.15 -9.23c0,4.1 1.68,6.15 5.03,6.15 2.65,0 5.5,-1.45 8.55,-4.35l0 -9.45 -6 0.52c-2.35,0.2 -4.2,0.94 -5.55,2.22 -1.35,1.27 -2.03,2.91 -2.03,4.91z"/>
  <path id="_8" class="fil4" d="M633.27 144.18c0,-2.9 1.32,-4.35 3.97,-4.35 2.65,0 3.98,1.45 3.98,4.35 0,2.91 -1.33,4.36 -3.98,4.36 -2.65,0 -3.97,-1.45 -3.97,-4.36zm0 -25.05c0,-2.9 1.32,-4.35 3.97,-4.35 2.65,0 3.98,1.45 3.98,4.35 0,2.9 -1.33,4.35 -3.98,4.35 -2.65,0 -3.97,-1.45 -3.97,-4.35z"/>
  <path id="_9" class="fil4" d="M314.39 212.16l0.3 -1.85c1.97,-0.23 3.47,-0.66 4.5,-1.3l0.25 0 -1.15 -7.6 -9.3 0 -3.3 7.65c1.07,0.57 2.65,0.99 4.75,1.25l-0.25 1.85 -11.75 0 0.25 -1.85c1.7,-0.26 2.92,-0.65 3.65,-1.15l13.6 -30.35 3.25 0 5.1 30.25c0.77,0.57 1.95,0.99 3.55,1.25l-0.2 1.85 -13.25 0zm1.5 -26.7l-5.8 13.35 7.8 0 -2 -13.35z"/>
  <path id="_10" class="fil4" d="M335.45 207.66c0,1.17 0.58,1.75 1.74,1.75 1.17,0 3,-0.85 5.51,-2.55l1.2 1.7c-1.04,0.84 -1.85,1.46 -2.45,1.88 -0.6,0.42 -1.5,0.87 -2.7,1.35 -1.2,0.48 -2.44,0.72 -3.71,0.72 -1.26,0 -2.24,-0.35 -2.92,-1.07 -0.68,-0.72 -1.03,-1.58 -1.03,-2.58 0,-1 0.84,-6.78 2.5,-17.35l-3.6 0 0.3 -1.65c1.97,-0.53 3.39,-1.22 4.26,-2.07 0.86,-0.85 1.73,-2.13 2.59,-3.83l2 0 -0.8 4.85 8.01 0 -0.55 2.7 -7.91 0 -0.6 3.65c-1.23,7.5 -1.84,11.67 -1.84,12.5z"/>
  <path id="_11" class="fil4" d="M366.35 193.66c0,2.47 -1.39,4.54 -4.15,6.23 -2.77,1.68 -6.25,2.52 -10.45,2.52l0 1.15c0,2.14 0.4,3.73 1.2,4.78 0.8,1.05 1.88,1.57 3.25,1.57 1.86,0 4.15,-1.01 6.85,-3.05l1.45 1.85c-1.04,1.04 -2.39,1.93 -4.05,2.68 -1.67,0.75 -3.42,1.12 -5.25,1.12 -2.77,0 -4.8,-0.8 -6.08,-2.4 -1.28,-1.6 -1.92,-3.53 -1.92,-5.8 0,-4.8 1.14,-8.66 3.42,-11.57 2.28,-2.92 5.24,-4.38 8.88,-4.38 2.26,0 3.97,0.52 5.12,1.55 1.15,1.04 1.73,2.29 1.73,3.75zm-7.2 -3c-1.84,0 -3.38,0.87 -4.63,2.6 -1.25,1.74 -2.09,3.97 -2.52,6.7 2.96,0 5.36,-0.6 7.2,-1.8 1.83,-1.2 2.75,-2.73 2.75,-4.6 0,-0.8 -0.24,-1.48 -0.73,-2.05 -0.48,-0.56 -1.17,-0.85 -2.07,-0.85z"/>
  <path id="_12" class="fil4" d="M370.35 212.16c1.96,-12.3 2.95,-18.71 2.95,-19.22 0,-0.52 -0.25,-0.88 -0.75,-1.08 -0.5,-0.2 -1.32,-0.3 -2.45,-0.3l-0.25 -1.65 6.8 -1.55 1.25 1.25 -0.5 4.6c2.16,-3.9 4.8,-5.85 7.9,-5.85 1.8,0 3.19,0.47 4.17,1.4 0.99,0.94 1.48,2.25 1.48,3.95 0,0.67 -0.27,2.5 -0.8,5.5 -0.97,5.44 -1.45,8.36 -1.45,8.78 0,0.42 0.06,0.7 0.17,0.85 0.12,0.15 0.44,0.22 0.95,0.22 0.52,0 1.31,-0.31 2.38,-0.95l0.5 1.6c-2.17,1.87 -4.09,2.8 -5.75,2.8 -1.14,0 -1.89,-0.22 -2.25,-0.67 -0.37,-0.45 -0.55,-1.01 -0.55,-1.68 0,-0.66 0.4,-3.3 1.2,-7.9 0.8,-4.6 1.2,-7.31 1.2,-8.15 0,-0.83 -0.24,-1.54 -0.73,-2.12 -0.48,-0.59 -1.12,-0.88 -1.92,-0.88 -1.94,0 -3.62,1.3 -5.05,3.9 -1.44,2.6 -2.42,5.6 -2.95,9l-1.3 8.15 -4.25 0z"/>
  <path id="_13" class="fil4" d="M405.3 212.51c-5.7,0 -8.55,-2.81 -8.55,-8.45 0,-5.8 1.65,-10.21 4.95,-13.25 1.8,-1.63 3.82,-2.45 6.05,-2.45 2.23,0 4.05,0.44 5.45,1.33 1.4,0.88 2.1,2.14 2.1,3.77 0,0.94 -0.3,1.77 -0.9,2.5 -0.6,0.74 -1.27,1.1 -2,1.1 -1.47,0 -2.27,-0.6 -2.4,-1.8 0.53,-0.83 0.8,-1.58 0.8,-2.25 0,-1.6 -0.72,-2.4 -2.15,-2.4 -2.03,0 -3.78,1.35 -5.25,4.05 -1.47,2.7 -2.2,5.69 -2.2,8.95 0,1.84 0.39,3.34 1.17,4.53 0.79,1.18 1.96,1.77 3.53,1.77 0.87,0 1.84,-0.22 2.92,-0.67 1.09,-0.45 1.95,-0.91 2.58,-1.38l0.95 -0.7 1.35 1.85c-0.83,0.84 -2.09,1.63 -3.78,2.38 -1.68,0.75 -3.22,1.12 -4.62,1.12z"/>
  <path id="_14" class="fil4" d="M421.75 193.21c0,-0.7 -0.24,-1.15 -0.73,-1.35 -0.48,-0.2 -1.29,-0.3 -2.42,-0.3l-0.25 -1.65 7.1 -1.55 1.25 1.25c-1.93,11.6 -2.9,17.67 -2.9,18.2 0,0.54 0.06,0.88 0.17,1.03 0.12,0.15 0.44,0.22 0.95,0.22 0.52,0 1.31,-0.31 2.38,-0.95l0.5 1.6c-2.17,1.87 -4.08,2.8 -5.75,2.8 -1.13,0 -1.88,-0.21 -2.25,-0.65 -0.37,-0.43 -0.55,-1 -0.55,-1.72 0,-0.72 0.42,-3.68 1.25,-8.9 0.83,-5.22 1.25,-7.89 1.25,-8.03zm6.15 -11.3c0,0.9 -0.28,1.67 -0.82,2.3 -0.56,0.64 -1.23,0.95 -2.03,0.95 -1.63,0 -2.45,-0.75 -2.45,-2.25 0,-1.1 0.27,-1.96 0.82,-2.6 0.55,-0.63 1.23,-0.95 2.03,-0.95 0.8,0 1.41,0.2 1.82,0.6 0.42,0.4 0.63,1.05 0.63,1.95z"/>
  <path id="_15" class="fil4" d="M440.9 210.11c1.9,0 3.61,-1.33 5.13,-4 1.51,-2.66 2.27,-5.89 2.27,-9.67 0,-3.79 -1.17,-5.68 -3.5,-5.68 -1.93,0 -3.65,1.34 -5.15,4.03 -1.5,2.68 -2.25,5.91 -2.25,9.67 0,3.77 1.17,5.65 3.5,5.65zm0 2.4c-2.67,0 -4.69,-0.74 -6.07,-2.22 -1.39,-1.48 -2.08,-3.59 -2.08,-6.33 0,-4.23 1.07,-7.89 3.2,-10.97 2.13,-3.09 5.08,-4.63 8.85,-4.63 2.67,0 4.69,0.74 6.08,2.23 1.38,1.48 2.07,3.59 2.07,6.32 0,4.27 -1.07,7.94 -3.2,11 -2.13,3.07 -5.08,4.6 -8.85,4.6zm7.2 -32.7c0.5,-0.53 1.03,-0.8 1.6,-0.8 0.57,0 1.03,0.16 1.38,0.48 0.35,0.31 0.52,0.78 0.52,1.4 0,0.61 -0.38,1.21 -1.15,1.77l-6.1 4.2 -1.1 -1.25 4.85 -5.8z"/>
  <path id="_16" class="fil4" d="M457.65 212.16c1.97,-12.3 2.95,-18.71 2.95,-19.22 0,-0.52 -0.25,-0.88 -0.75,-1.08 -0.5,-0.2 -1.32,-0.3 -2.45,-0.3l-0.25 -1.65 6.8 -1.55 1.25 1.25 -0.5 4.6c2.17,-3.9 4.8,-5.85 7.9,-5.85 1.8,0 3.19,0.47 4.18,1.4 0.98,0.94 1.47,2.25 1.47,3.95 0,0.67 -0.26,2.5 -0.8,5.5 -0.96,5.44 -1.45,8.36 -1.45,8.78 0,0.42 0.06,0.7 0.18,0.85 0.11,0.15 0.43,0.22 0.95,0.22 0.51,0 1.31,-0.31 2.37,-0.95l0.5 1.6c-2.16,1.87 -4.08,2.8 -5.75,2.8 -1.13,0 -1.88,-0.22 -2.25,-0.67 -0.36,-0.45 -0.55,-1.01 -0.55,-1.68 0,-0.66 0.4,-3.3 1.2,-7.9 0.8,-4.6 1.2,-7.31 1.2,-8.15 0,-0.83 -0.24,-1.54 -0.72,-2.12 -0.49,-0.59 -1.13,-0.88 -1.93,-0.88 -1.93,0 -3.61,1.3 -5.05,3.9 -1.43,2.6 -2.41,5.6 -2.95,9l-1.3 8.15 -4.25 0z"/>
  <path id="_17" class="fil4" d="M506.8 210.16c3.37,0 6.16,-1.87 8.38,-5.62 2.22,-3.75 3.32,-8.64 3.32,-14.68 0,-3 -0.45,-5.26 -1.35,-6.77 -0.9,-1.52 -2.34,-2.28 -4.35,-2.28 -3.4,0 -6.2,1.89 -8.4,5.68 -2.2,3.78 -3.3,8.67 -3.3,14.67 0,6 1.9,9 5.7,9zm5.65 -31.75c3.8,0 6.58,1.01 8.33,3.03 1.75,2.01 2.63,5 2.63,8.95 0,3.95 -0.57,7.55 -1.71,10.8 -1.13,3.25 -2.95,5.95 -5.47,8.1 -2.52,2.15 -5.61,3.22 -9.28,3.22 -3.66,0 -6.38,-1 -8.15,-3.02 -1.76,-2.02 -2.65,-5.03 -2.65,-9.03 0,-4.7 0.85,-8.9 2.55,-12.6 1.84,-3.96 4.44,-6.7 7.8,-8.2 1.8,-0.83 3.79,-1.25 5.95,-1.25z"/>
  <path id="_18" class="fil4" d="M526.65 222.06c-0.49,0.27 -1.09,0.51 -1.77,0.73 -0.68,0.22 -1.58,0.32 -2.7,0.32 -1.12,0 -2.13,-0.34 -3.05,-1.05 -0.92,-0.7 -1.38,-1.6 -1.38,-2.72 0,-1.12 0.3,-1.96 0.88,-2.53 0.58,-0.56 1.27,-0.85 2.08,-0.85 1.33,0 2.13,0.6 2.4,1.8 -0.57,0.3 -0.86,0.82 -0.86,1.55 0,0.94 0.45,1.4 1.36,1.4 1.36,0 2.29,-0.91 2.8,-2.75 0.33,-1.2 0.6,-2.85 0.82,-4.95 0.22,-2.1 0.39,-3.55 0.53,-4.35l2.75 -17.15 -3.71 0 0.3 -1.7 3.81 -1 0.45 -2.3c1.16,-6.13 4,-9.2 8.5,-9.2 1.5,0 2.77,0.39 3.82,1.18 1.05,0.78 1.58,1.75 1.58,2.92 0,1.17 -0.32,2.09 -0.95,2.75 -0.64,0.67 -1.35,1 -2.15,1 -1.17,0 -1.92,-0.6 -2.25,-1.8 0.8,-0.6 1.2,-1.2 1.2,-1.8 0,-1.26 -0.74,-1.9 -2.2,-1.9 -1.54,0 -2.54,0.84 -3,2.5 -0.34,1.24 -0.54,2.6 -0.6,4.1 -0.07,1.5 -0.12,2.44 -0.15,2.8l4.8 0 -0.35 2.45 -4.85 0 -2.8 17.7c-0.5,3.27 -0.86,5.22 -1.08,5.85 -0.22,0.64 -0.47,1.4 -0.77,2.28 -0.3,0.88 -0.6,1.52 -0.88,1.9 -0.28,0.38 -0.66,0.88 -1.12,1.5 -0.47,0.62 -0.95,1.06 -1.46,1.32z"/>
  <path id="_19" class="fil4" d="M545.96 207.66c0,1.17 0.58,1.75 1.75,1.75 1.16,0 3,-0.85 5.5,-2.55l1.2 1.7c-1.04,0.84 -1.85,1.46 -2.45,1.88 -0.6,0.42 -1.5,0.87 -2.7,1.35 -1.2,0.48 -2.44,0.72 -3.7,0.72 -1.27,0 -2.25,-0.35 -2.93,-1.07 -0.68,-0.72 -1.02,-1.58 -1.02,-2.58 0,-1 0.83,-6.78 2.5,-17.35l-3.6 0 0.3 -1.65c1.96,-0.53 3.38,-1.22 4.25,-2.07 0.86,-0.85 1.73,-2.13 2.6,-3.83l2 0 -0.8 4.85 8 0 -0.55 2.7 -7.9 0 -0.6 3.65c-1.24,7.5 -1.85,11.67 -1.85,12.5z"/>
  <path id="_20" class="fil4" d="M575.56 207.21l-0.15 1.1c0,0.5 0.33,0.75 1,0.75 0.66,0 1.53,-0.31 2.6,-0.95l0.5 1.6c-2.17,1.87 -4.07,2.8 -5.7,2.8 -1.14,0 -1.89,-0.21 -2.25,-0.65 -0.37,-0.43 -0.55,-0.95 -0.55,-1.57 0,-0.62 0.13,-1.63 0.4,-3.03 -2.37,3.5 -4.78,5.25 -7.23,5.25 -2.45,0 -4.14,-0.77 -5.07,-2.32 -0.94,-1.55 -1.4,-3.69 -1.4,-6.43 0,-2.73 0.43,-5.24 1.3,-7.52 0.86,-2.29 2.18,-4.19 3.95,-5.7 1.76,-1.52 3.66,-2.28 5.7,-2.28 2.03,0 3.98,0.44 5.85,1.3l2.55 -1.2 1.45 0.7 -2.95 18.15zm-10.2 2.7c1.4,0 2.85,-1.2 4.35,-3.62 1.5,-2.42 2.55,-5.48 3.15,-9.18l0.85 -5.25c-1.23,-0.8 -2.55,-1.2 -3.95,-1.2 -1.4,0 -2.73,0.74 -3.98,2.23 -1.25,1.48 -2.16,3.19 -2.75,5.12 -0.58,1.94 -0.87,3.8 -0.87,5.6 0,4.2 1.06,6.3 3.2,6.3z"/>
  <path id="_21" class="fil4" d="M591.86 186.86c-0.8,5 -1.55,9.69 -2.25,14.08 -0.7,4.38 -1.05,6.75 -1.05,7.1 0,0.35 0.07,0.61 0.2,0.77 0.13,0.17 0.46,0.25 0.97,0.25 0.52,0 1.31,-0.31 2.38,-0.95l0.5 1.6c-2.17,1.87 -4.08,2.8 -5.75,2.8 -1.13,0 -1.88,-0.21 -2.25,-0.65 -0.37,-0.43 -0.55,-1 -0.55,-1.7 0,-1.26 0.82,-6.93 2.45,-17l0.85 -5c0.67,-4.06 1,-6.28 1,-6.65 0,-1.4 -1.28,-2.23 -3.85,-2.5l0.25 -1.65 7.25 -0.55 1.25 1.25c-0.13,0.87 -0.6,3.8 -1.4,8.8z"/>
  <path id="_22" class="fil4" d="M597.66 212.16c1.97,-12.3 2.95,-18.71 2.95,-19.22 0,-0.52 -0.25,-0.88 -0.75,-1.08 -0.5,-0.2 -1.32,-0.3 -2.45,-0.3l-0.25 -1.65 6.8 -1.55 1.25 1.25 -0.5 4.6c2.17,-3.9 4.8,-5.85 7.9,-5.85 1.87,0 3.28,0.49 4.23,1.45 0.95,0.97 1.42,2.35 1.42,4.15 2.2,-3.73 4.78,-5.6 7.75,-5.6 1.8,0 3.19,0.47 4.18,1.4 0.98,0.94 1.47,2.25 1.47,3.95 0,0.57 -0.07,1.24 -0.2,2l-1.85 11.1c-0.17,0.84 -0.25,1.34 -0.25,1.5 0,0.5 0.33,0.75 0.98,0.75 0.65,0 1.5,-0.31 2.57,-0.95l0.5 1.6c-2.17,1.87 -4.08,2.8 -5.75,2.8 -1.13,0 -1.88,-0.22 -2.25,-0.67 -0.37,-0.45 -0.55,-1.01 -0.55,-1.68 0,-0.66 0.4,-3.3 1.2,-7.9 0.8,-4.6 1.2,-7.31 1.2,-8.15 0,-0.83 -0.24,-1.54 -0.72,-2.12 -0.49,-0.59 -1.19,-0.88 -2.1,-0.88 -0.92,0 -1.81,0.34 -2.68,1 -0.87,0.67 -1.6,1.59 -2.2,2.78 -0.6,1.18 -1.13,2.44 -1.6,3.77 -0.47,1.34 -0.87,2.84 -1.2,4.5 -0.47,2.57 -0.82,4.69 -1.05,6.35 -0.23,1.67 -0.35,2.55 -0.35,2.65l-4.25 0c0.1,-0.73 0.38,-2.51 0.85,-5.35 1.27,-7.33 1.9,-11.49 1.9,-12.47 0,-0.99 -0.24,-1.77 -0.72,-2.35 -0.49,-0.59 -1.13,-0.88 -1.93,-0.88 -1.93,0 -3.62,1.3 -5.05,3.9 -1.43,2.6 -2.42,5.6 -2.95,9l-1.3 8.15 -4.25 0z"/>
  <path id="_23" class="fil4" d="M646.21 210.11c1.9,0 3.61,-1.33 5.13,-4 1.51,-2.66 2.27,-5.89 2.27,-9.67 0,-3.79 -1.16,-5.68 -3.5,-5.68 -1.93,0 -3.65,1.34 -5.15,4.03 -1.5,2.68 -2.25,5.91 -2.25,9.67 0,3.77 1.17,5.65 3.5,5.65zm0 2.4c-2.66,0 -4.69,-0.74 -6.07,-2.22 -1.39,-1.48 -2.08,-3.59 -2.08,-6.33 0,-4.23 1.07,-7.89 3.2,-10.97 2.14,-3.09 5.09,-4.63 8.85,-4.63 2.67,0 4.69,0.74 6.08,2.23 1.38,1.48 2.07,3.59 2.07,6.32 0,4.27 -1.06,7.94 -3.2,11 -2.13,3.07 -5.08,4.6 -8.85,4.6z"/>
  <path id="_24" class="fil4" d="M670.51 186.86c-0.8,5 -1.55,9.69 -2.25,14.08 -0.7,4.38 -1.05,6.75 -1.05,7.1 0,0.35 0.07,0.61 0.2,0.77 0.14,0.17 0.46,0.25 0.98,0.25 0.52,0 1.31,-0.31 2.37,-0.95l0.5 1.6c-2.16,1.87 -4.08,2.8 -5.75,2.8 -1.13,0 -1.88,-0.21 -2.25,-0.65 -0.36,-0.43 -0.55,-1 -0.55,-1.7 0,-1.26 0.82,-6.93 2.45,-17l0.85 -5c0.67,-4.06 1,-6.28 1,-6.65 0,-1.4 -1.28,-2.23 -3.85,-2.5l0.25 -1.65 7.25 -0.55 1.25 1.25c-0.13,0.87 -0.6,3.8 -1.4,8.8z"/>
  <path id="_25" class="fil4" d="M684.92 210.11c1.89,0 3.6,-1.33 5.12,-4 1.52,-2.66 2.28,-5.89 2.28,-9.67 0,-3.79 -1.17,-5.68 -3.5,-5.68 -1.94,0 -3.66,1.34 -5.16,4.03 -1.5,2.68 -2.25,5.91 -2.25,9.67 0,3.77 1.17,5.65 3.51,5.65zm0 2.4c-2.67,0 -4.7,-0.74 -6.08,-2.22 -1.38,-1.48 -2.08,-3.59 -2.08,-6.33 0,-4.23 1.07,-7.89 3.21,-10.97 2.13,-3.09 5.08,-4.63 8.85,-4.63 2.66,0 4.69,0.74 6.07,2.23 1.38,1.48 2.08,3.59 2.08,6.32 0,4.27 -1.07,7.94 -3.2,11 -2.14,3.07 -5.09,4.6 -8.85,4.6zm7.2 -32.7c0.5,-0.53 1.03,-0.8 1.6,-0.8 0.56,0 1.02,0.16 1.37,0.48 0.35,0.31 0.53,0.78 0.53,1.4 0,0.61 -0.39,1.21 -1.15,1.77l-6.1 4.2 -1.11 -1.25 4.86 -5.8z"/>
  <path id="_26" class="fil4" d="M697.57 217.81c0,-1.03 0.34,-1.85 1.02,-2.47 0.68,-0.62 1.48,-0.93 2.38,-0.93 1.26,0 2.11,0.59 2.55,1.75 -0.57,0.47 -0.85,1.09 -0.85,1.85 0,0.77 0.34,1.43 1.02,1.98 0.68,0.55 1.73,0.82 3.13,0.82 2.53,0 4.43,-0.9 5.7,-2.72 1.26,-1.82 2.18,-4.39 2.75,-7.73l0.5 -3.05c-2.34,3.47 -4.73,5.2 -7.18,5.2 -2.45,0 -4.14,-0.77 -5.07,-2.32 -0.94,-1.55 -1.4,-3.65 -1.4,-6.3 0,-2.65 0.42,-5.13 1.27,-7.43 0.85,-2.3 2.14,-4.24 3.88,-5.82 1.73,-1.59 3.62,-2.38 5.67,-2.38 2.05,0 4.03,0.44 5.93,1.3l2.55 -1.2 1.5 0.7 -3.15 19.4c-0.8,5.04 -2.3,8.74 -4.5,11.1 -2.2,2.37 -5.27,3.55 -9.2,3.55 -2.47,0 -4.5,-0.45 -6.1,-1.37 -1.6,-0.92 -2.4,-2.23 -2.4,-3.93zm16.8 -27.2c-2.2,0 -4.05,1.42 -5.55,4.25 -1.5,2.84 -2.25,5.75 -2.25,8.75 0,4.2 1.06,6.3 3.2,6.3 1.36,0 2.88,-1.42 4.55,-4.27 1.66,-2.85 2.7,-5.88 3.1,-9.08l0.6 -4.75c-1.17,-0.8 -2.39,-1.2 -3.65,-1.2z"/>
  <path id="_27" class="fil4" d="M730.77 193.21c0,-0.7 -0.24,-1.15 -0.73,-1.35 -0.48,-0.2 -1.29,-0.3 -2.42,-0.3l-0.25 -1.65 7.1 -1.55 1.25 1.25c-1.94,11.6 -2.9,17.67 -2.9,18.2 0,0.54 0.06,0.88 0.17,1.03 0.12,0.15 0.44,0.22 0.95,0.22 0.52,0 1.31,-0.31 2.38,-0.95l0.5 1.6c-2.17,1.87 -4.09,2.8 -5.75,2.8 -1.13,0 -1.88,-0.21 -2.25,-0.65 -0.37,-0.43 -0.55,-1 -0.55,-1.72 0,-0.72 0.41,-3.68 1.25,-8.9 0.83,-5.22 1.25,-7.89 1.25,-8.03zm6.15 -11.3c0,0.9 -0.28,1.67 -0.83,2.3 -0.55,0.64 -1.22,0.95 -2.02,0.95 -1.64,0 -2.45,-0.75 -2.45,-2.25 0,-1.1 0.27,-1.96 0.82,-2.6 0.55,-0.63 1.23,-0.95 2.03,-0.95 0.8,0 1.41,0.2 1.82,0.6 0.42,0.4 0.63,1.05 0.63,1.95z"/>
  <path id="_28" class="fil4" d="M749.52 212.51c-5.7,0 -8.55,-2.81 -8.55,-8.45 0,-5.8 1.65,-10.21 4.95,-13.25 1.8,-1.63 3.82,-2.45 6.05,-2.45 2.23,0 4.05,0.44 5.45,1.33 1.4,0.88 2.1,2.14 2.1,3.77 0,0.94 -0.3,1.77 -0.9,2.5 -0.6,0.74 -1.27,1.1 -2,1.1 -1.47,0 -2.27,-0.6 -2.4,-1.8 0.53,-0.83 0.8,-1.58 0.8,-2.25 0,-1.6 -0.72,-2.4 -2.15,-2.4 -2.03,0 -3.78,1.35 -5.25,4.05 -1.47,2.7 -2.2,5.69 -2.2,8.95 0,1.84 0.39,3.34 1.17,4.53 0.79,1.18 1.96,1.77 3.53,1.77 0.87,0 1.84,-0.22 2.92,-0.67 1.09,-0.45 1.95,-0.91 2.58,-1.38l0.95 -0.7 1.35 1.85c-0.83,0.84 -2.09,1.63 -3.78,2.38 -1.68,0.75 -3.22,1.12 -4.62,1.12z"/>
  <path id="_29" class="fil4" d="M779.92 207.21l-0.15 1.1c0,0.5 0.33,0.75 1,0.75 0.67,0 1.53,-0.31 2.6,-0.95l0.5 1.6c-2.17,1.87 -4.07,2.8 -5.7,2.8 -1.13,0 -1.88,-0.21 -2.25,-0.65 -0.37,-0.43 -0.55,-0.95 -0.55,-1.57 0,-0.62 0.13,-1.63 0.4,-3.03 -2.37,3.5 -4.77,5.25 -7.23,5.25 -2.45,0 -4.14,-0.77 -5.07,-2.32 -0.93,-1.55 -1.4,-3.69 -1.4,-6.43 0,-2.73 0.43,-5.24 1.3,-7.52 0.87,-2.29 2.18,-4.19 3.95,-5.7 1.77,-1.52 3.67,-2.28 5.7,-2.28 2.03,0 3.98,0.44 5.85,1.3l2.55 -1.2 1.45 0.7 -2.95 18.15zm-10.2 2.7c1.4,0 2.85,-1.2 4.35,-3.62 1.5,-2.42 2.55,-5.48 3.15,-9.18l0.85 -5.25c-1.23,-0.8 -2.55,-1.2 -3.95,-1.2 -1.4,0 -2.73,0.74 -3.98,2.23 -1.24,1.48 -2.16,3.19 -2.74,5.12 -0.59,1.94 -0.88,3.8 -0.88,5.6 0,4.2 1.07,6.3 3.2,6.3z"/>
 </g>
</svg>
